<?xml version="1.0" encoding="utf-8"?>
<!-- Generator: Adobe Illustrator 25.2.3, SVG Export Plug-In . SVG Version: 6.00 Build 0)  -->
<svg version="1.1" id="Capa_1" xmlns="http://www.w3.org/2000/svg" xmlns:xlink="http://www.w3.org/1999/xlink" x="0px" y="0px"
	 viewBox="0 0 45.2 45.2" style="enable-background:new 0 0 45.2 45.2;" xml:space="preserve">
<style type="text/css">
	.st0{fill:#2186F4;}
</style>
<g>
	<g>
		<path class="st0" d="M43.7,25.7c-0.5-0.1-0.9,0-1.3,0.3c-1.5,1.2-3.2,2.3-5.1,3c-1.8,0.7-3.7,1-5.7,1c-4.6,0-8.8-1.9-11.8-4.9
			s-4.9-7.2-4.9-11.8c0-1.9,0.3-3.8,0.9-5.5c0.6-1.8,1.5-3.5,2.7-4.9c0.5-0.6,0.4-1.5-0.2-2c-0.4-0.3-0.9-0.4-1.3-0.3
			C12.2,1.8,8,4.7,5,8.6c-2.9,3.8-4.6,8.5-4.6,13.6C0.4,28.4,2.9,34,7,38.1c4.1,4.1,9.6,6.6,15.9,6.6c5.2,0,10-1.8,13.9-4.8
			c3.9-3.1,6.8-7.4,7.9-12.4C44.9,26.6,44.5,25.8,43.7,25.7z"/>
	</g>
</g>
</svg>
