<?xml version="1.0" encoding="utf-8"?>
<!-- Generator: Adobe Illustrator 25.2.3, SVG Export Plug-In . SVG Version: 6.00 Build 0)  -->
<svg version="1.1" id="Capa_1" xmlns="http://www.w3.org/2000/svg" xmlns:xlink="http://www.w3.org/1999/xlink" x="0px" y="0px"
	 viewBox="0 0 45.2 45.2" style="enable-background:new 0 0 45.2 45.2;" xml:space="preserve">
<style type="text/css">
	.st0{fill:#FFBD48;}
</style>
<g>
	<g>
		<path class="st0" d="M22.6,11.3c-6.2,0-11.3,5.1-11.3,11.3s5.1,11.3,11.3,11.3c6.2,0,11.3-5.1,11.3-11.3S28.8,11.3,22.6,11.3z"/>
		<g>
			<g>
				<path class="st0" d="M22.6,7.9c-1.2,0-2.2-1-2.2-2.2V2.2c0-1.2,1-2.2,2.2-2.2s2.2,1,2.2,2.2v3.5C24.8,7,23.8,7.9,22.6,7.9z"/>
			</g>
			<g>
				<path class="st0" d="M22.6,37.2c-1.2,0-2.2,1-2.2,2.2V43c0,1.2,1,2.2,2.2,2.2s2.2-1,2.2-2.2v-3.5C24.8,38.2,23.8,37.2,22.6,37.2
					z"/>
			</g>
			<g>
				<path class="st0" d="M32.9,12.2c-0.9-0.9-0.9-2.3,0-3.1l2.5-2.5c0.9-0.9,2.3-0.9,3.1,0c0.9,0.9,0.9,2.3,0,3.1L36,12.2
					C35.2,13.1,33.8,13.1,32.9,12.2z"/>
			</g>
			<g>
				<path class="st0" d="M12.2,32.9c-0.9-0.9-2.3-0.9-3.1,0l-2.5,2.5c-0.9,0.9-0.9,2.3,0,3.1s2.3,0.9,3.1,0l2.5-2.5
					C13.1,35.2,13.1,33.8,12.2,32.9z"/>
			</g>
			<g>
				<path class="st0" d="M37.2,22.6c0-1.2,1-2.2,2.2-2.2H43c1.2,0,2.2,1,2.2,2.2s-1,2.2-2.2,2.2h-3.5C38.2,24.8,37.2,23.8,37.2,22.6
					z"/>
			</g>
			<g>
				<path class="st0" d="M7.9,22.6c0-1.2-1-2.2-2.2-2.2H2.2c-1.2,0-2.2,1-2.2,2.2s1,2.2,2.2,2.2h3.5C7,24.8,7.9,23.8,7.9,22.6z"/>
			</g>
			<g>
				<path class="st0" d="M32.9,32.9c0.9-0.9,2.3-0.9,3.1,0l2.5,2.5c0.9,0.9,0.9,2.3,0,3.1s-2.3,0.9-3.1,0L32.9,36
					C32.1,35.2,32.1,33.8,32.9,32.9z"/>
			</g>
			<g>
				<path class="st0" d="M12.2,12.2c0.9-0.9,0.9-2.3,0-3.1L9.7,6.6c-0.9-0.9-2.3-0.9-3.1,0c-0.9,0.9-0.9,2.3,0,3.1l2.5,2.5
					C10,13.1,11.4,13.1,12.2,12.2z"/>
			</g>
		</g>
	</g>
</g>
</svg>
